<?xml version="1.0" encoding="utf-8"?>
<!-- Generator: Adobe Illustrator 19.0.0, SVG Export Plug-In . SVG Version: 6.00 Build 0)  -->
<svg version="1.1" id="Layer_1" xmlns="http://www.w3.org/2000/svg" xmlns:xlink="http://www.w3.org/1999/xlink" x="0px" y="0px"
	 viewBox="0 0 1024 1024" enable-background="new 0 0 1024 1024" xml:space="preserve">
<g id="XMLID_688_">
	<g id="XMLID_690_">
		<g id="XMLID_714_">
		</g>
		<g id="XMLID_710_">
		</g>
		<g id="XMLID_706_">
		</g>
		<g id="XMLID_702_">
		</g>
		<g id="XMLID_698_">
		</g>
	</g>
</g>
<g id="XMLID_34_">
	<circle id="XMLID_257_" fill="#FFFFFF" cx="512" cy="511.7" r="505.2"/>
	<g id="XMLID_126_">
		<g id="XMLID_136_">
			<polygon id="XMLID_256_" fill="none" points="843.5,445.9 843.5,445.9 843.5,445.9 			"/>
			<polygon id="XMLID_255_" fill="none" points="843.5,445.9 843.5,445.9 843.5,445.9 			"/>
			<polygon id="XMLID_254_" fill="none" points="843.5,445.9 843.5,445.9 843.5,445.9 			"/>
			<polygon id="XMLID_253_" fill="#F5FAFD" points="425.4,315.8 405,396.6 647.6,354.4 			"/>
			<polygon id="XMLID_252_" fill="#E4E6EE" points="337.4,496.5 534.8,745.9 553.4,558.1 			"/>
			<polygon id="XMLID_251_" fill="#C1D6E9" points="337.4,496.5 327.9,769.3 534.8,745.9 			"/>
			<polygon id="XMLID_250_" fill="#201E4C" points="405,396.6 425.4,315.8 327.9,315.8 373.3,443.7 446.4,419.9 647.6,354.4 			"/>
			<polygon id="XMLID_249_" fill="#ECEFF3" points="446.4,419.9 373.3,443.7 337.4,496.5 553.4,558.1 			"/>
			<polygon id="XMLID_248_" fill="#2F3765" points="534.8,745.9 327.9,769.3 531.2,868.6 641.9,732.2 			"/>
			<polygon id="XMLID_247_" fill="#F9F9FD" points="327.9,769.3 461.9,940.3 531.2,868.6 			"/>
			<polygon id="XMLID_246_" fill="#9DD0F1" points="843.5,445.9 791.2,648.7 866.5,683.7 			"/>
			<polygon id="XMLID_245_" fill="#394A83" points="641.9,732.2 531.2,868.6 715.8,812.9 791.2,648.7 			"/>
			<polygon id="XMLID_244_" fill="#38467D" points="715.8,812.9 866.5,683.7 791.2,648.7 			"/>
			<polygon id="XMLID_243_" fill="#D4D8E3" points="531.2,868.6 461.9,940.3 530.9,1016.6 616.2,934.1 			"/>
			<polygon id="XMLID_242_" fill="#FCF7FA" points="616.2,934.1 715.8,812.9 531.2,868.6 			"/>
			<polygon id="XMLID_241_" fill="#014BA6" points="812.4,248.8 636.5,226.7 741.8,302.1 			"/>
			<polygon id="XMLID_240_" fill="#2B3B66" points="264.5,591.8 250.1,704.7 327.9,769.3 			"/>
			<polygon id="XMLID_239_" fill="#0F193B" points="282.9,395.6 253.2,408.7 272.5,419.9 302.1,405.8 282.9,395.6 			"/>
			<polygon id="XMLID_238_" fill="#DDE0EA" points="269.8,883.5 461.9,940.3 327.9,769.3 			"/>
			<polygon id="XMLID_237_" fill="#E2E8EE" points="264.5,591.8 327.9,769.3 337.4,496.5 			"/>
			<polygon id="XMLID_236_" fill="#E4E5F0" points="805.6,919.9 715.8,812.9 616.2,934.1 			"/>
			<polygon id="XMLID_235_" fill="#4B9CF0" points="902.1,528.8 843.5,445.9 866.5,683.7 			"/>
			<polygon id="XMLID_234_" fill="#73BCF1" points="404.4,277.6 327.9,315.8 425.4,315.8 			"/>
			<polygon id="XMLID_233_" fill="none" stroke="#000000" stroke-width="1.7946" stroke-miterlimit="10" points="643.7,610.2 
				643.7,610.2 643.7,610.2 			"/>
			<polygon id="XMLID_232_" fill="#303D6B" points="553.4,558.1 641.9,732.2 643.7,610.2 647.6,354.4 			"/>
			<polygon id="XMLID_231_" fill="#D9DAE1" points="446.4,419.9 553.4,558.1 647.6,354.4 			"/>
			<polygon id="XMLID_230_" fill="#E7F0FA" points="641.9,732.2 791.2,648.7 643.7,610.2 643.7,610.2 			"/>
			<polygon id="XMLID_229_" fill="#3D74DB" points="540.5,259.6 425.4,315.8 647.6,354.4 			"/>
			<polygon id="XMLID_228_" fill="#1F1F45" points="553.4,558.1 534.8,745.9 641.9,732.2 			"/>
			<polygon id="XMLID_227_" fill="#E3DEE4" points="250.1,704.7 155.9,741.6 327.9,769.3 			"/>
			<polygon id="XMLID_226_" fill="#0353AE" points="173.4,641.1 155.9,741.6 250.1,704.7 			"/>
			<path id="XMLID_225_" fill="none" stroke="#000000" stroke-width="1.7946" stroke-miterlimit="10" d="M529.9,1017.3
				c0.4,0,0.7,0,1.1,0l0-0.7C530.9,1016.6,530.5,1016.9,529.9,1017.3z"/>
			<path id="XMLID_224_" fill="#F1F2F5" d="M269.8,883.5L239,936.2c34.3,21.5,83.7,46.9,144.9,63.5l77.9-59.4L269.8,883.5z"/>
			<path id="XMLID_223_" fill="#E3E5EF" d="M530.9,1016.6l0,0.7c4.2-0.1,8.3-0.2,12.5-0.4c45-2.5,87.6-11.5,127.3-25.4l-54.6-57.4
				L530.9,1016.6z"/>
			<polygon id="XMLID_222_" fill="#F3F4F9" points="155.9,741.6 269.8,883.5 327.9,769.3 			"/>
			<path id="XMLID_221_" fill="#D4DAEA" d="M155.9,741.6l28.4,154.5c0,0,19.5,18,54.8,40.1l30.8-52.7L155.9,741.6z"/>
			<path id="XMLID_219_" fill="#E4E6F0" d="M461.9,940.3L384,999.8c43.1,11.7,92.1,19,145.9,17.5c0.6-0.4,1.1-0.7,1.1-0.7
				L461.9,940.3z"/>
			<path id="XMLID_217_" fill="#CCD3E4" d="M715.8,812.9l196,4.4c11-13.9,21.1-27.9,30.1-41.9l-75.3-91.6L715.8,812.9z"/>
			<path id="XMLID_215_" fill="#598AC5" d="M941.9,775.4c14-21.8,25.6-43.5,34.5-64.5l-7.1-16.2l-102.8-10.9L941.9,775.4z"/>
			<polygon id="XMLID_214_" fill="#2752DB" points="902.1,528.8 866.5,683.7 969.3,694.6 967.9,691.5 			"/>
			<polygon id="XMLID_212_" fill="none" stroke="#000000" stroke-width="1.7946" stroke-miterlimit="10" points="805.6,919.9 
				805.6,919.9 805.6,919.9 			"/>
			<path id="XMLID_211_" fill="#F4F5F7" d="M616.2,934.1l54.6,57.4c49.6-17.3,94.9-42.2,134.8-71.6l0,0L616.2,934.1z"/>
			<path id="XMLID_210_" fill="#F2F3F7" d="M805.6,919.9L805.6,919.9c41.5-30.6,77.1-65.9,106.2-102.6l-196-4.4L805.6,919.9z"/>
			<polygon id="XMLID_209_" fill="#2C58D8" points="246.1,540.2 173.4,641.1 250.1,704.7 264.5,591.8 			"/>
			<polygon id="XMLID_203_" fill="#2A53D7" points="636.5,226.7 540.5,259.6 647.6,354.4 741.8,302.1 			"/>
			<polygon id="XMLID_192_" fill="#46ACF3" points="445.7,223.1 540.5,259.6 636.5,226.7 			"/>
			<polygon id="XMLID_191_" fill="#81B8EE" points="705.9,419.9 791.2,648.7 843.5,445.9 			"/>
			<polygon id="XMLID_178_" fill="#3A7ADA" points="843.5,445.9 741.8,302.1 643.7,610.2 791.2,648.7 705.9,419.9 			"/>
			<polygon id="XMLID_170_" fill="#57AAF3" points="404.4,277.6 445.7,223.1 414.6,235.7 445.7,223.1 335.6,255.4 327.9,315.8 			
				"/>
			<polygon id="XMLID_169_" fill="#201E48" points="647.6,354.4 643.7,610.2 741.8,302.1 			"/>
			<polygon id="XMLID_151_" fill="#4090DF" points="445.7,223.1 404.4,277.6 425.4,315.8 540.5,259.6 			"/>
			<polygon id="XMLID_143_" fill="#8A9FC0" points="237.5,371.5 52.7,428.4 49.6,437.4 44.6,443.7 165.8,443.7 			"/>
			<polygon id="XMLID_141_" fill="#212B61" points="165.8,443.7 44.6,443.7 226.8,477.8 337.4,496.5 373.3,443.7 			"/>
			<polygon id="XMLID_140_" fill="#97D3F0" points="335.6,255.4 271.6,296.7 327.9,315.8 			"/>
			<polygon id="XMLID_139_" fill="#CACEE1" points="226.8,477.8 246.1,540.2 264.5,591.8 337.4,496.5 			"/>
			<polygon id="XMLID_138_" fill="#6F82AE" points="373.3,443.7 302.1,405.8 272.5,419.9 253.2,408.7 282.9,395.6 282.9,395.6 
				237.5,371.5 165.8,443.7 			"/>
			<polygon id="XMLID_137_" fill="#B5E8F3" points="327.9,315.8 271.6,296.7 237.5,371.5 282.9,395.6 302.1,405.8 373.3,443.7 			
				"/>
		</g>
		<g id="XMLID_127_">
			<polygon id="XMLID_135_" fill="#421D0F" points="456.5,371.4 467.5,365.5 469.1,395.6 405,396.6 			"/>
			<polygon id="XMLID_134_" fill="#472314" points="463.5,333.3 456.5,371.4 405,396.6 415.3,355.9 			"/>
			<polygon id="XMLID_133_" fill="#4E2D28" points="481,358.4 521.4,388.6 469.1,395.6 467.5,365.5 			"/>
			<polygon id="XMLID_129_" fill="#402D30" points="504,331.2 521.4,388.6 481,358.4 463.5,333.3 			"/>
			<polygon id="XMLID_128_" fill="#FFFFF9" points="463.5,333.3 481,358.4 467.5,365.5 456.5,371.4 			"/>
		</g>
	</g>
</g>
</svg>
