<?xml version="1.0" encoding="utf-8"?>
<!-- Generator: Adobe Illustrator 19.0.0, SVG Export Plug-In . SVG Version: 6.00 Build 0)  -->
<svg version="1.1" id="Layer_1" xmlns="http://www.w3.org/2000/svg" xmlns:xlink="http://www.w3.org/1999/xlink" x="0px" y="0px"
	 viewBox="0 0 1024 1024" enable-background="new 0 0 1024 1024" xml:space="preserve">
<linearGradient id="XMLID_9_" gradientUnits="userSpaceOnUse" x1="8.5585" y1="512" x2="1015.4416" y2="512">
	<stop  offset="0" style="stop-color:#1344C4"/>
	<stop  offset="1" style="stop-color:#4B87EF"/>
</linearGradient>
<path id="XMLID_28_" fill="url(#XMLID_9_)" d="M958.9,1010H65.1c-31.2,0-56.5-25.3-56.5-56.5v-883C8.6,39.3,33.9,14,65.1,14h893.9
	c31.2,0,56.5,25.3,56.5,56.5v883C1015.4,984.7,990.1,1010,958.9,1010z"/>
<g id="XMLID_688_">
	<g id="XMLID_690_">
		<g id="XMLID_714_">
		</g>
		<g id="XMLID_710_">
		</g>
		<g id="XMLID_706_">
		</g>
		<g id="XMLID_702_">
		</g>
		<g id="XMLID_698_">
		</g>
	</g>
</g>
<g id="XMLID_1_">
	<g id="XMLID_8_">
		<path id="XMLID_10_" fill="none" d="M514.3,952.9c44.2-2.4,86.1-11.3,125.1-25c0,0-68.7-54-68.7-54l-69.8,79.4c0.4,0,0.7,0,1.1,0
			C506.1,953.3,510.2,953.2,514.3,952.9z"/>
		<path id="XMLID_11_" fill="none" d="M264.2,836.2l-49.1,37.5c33.7,21.2,82.3,46.1,142.4,62.4L264.2,836.2z"/>
		<path id="XMLID_12_" fill="none" d="M876.2,757L876.2,757l-96.2,35.2l-8,65.5C812.6,827.6,847.6,792.9,876.2,757z"/>
		<path id="XMLID_13_" fill="none" d="M876.2,756.9L876.2,756.9L876.2,756.9L876.2,756.9l-0.1,0.1
			C876.2,756.9,876.2,756.9,876.2,756.9z"/>
		<path id="XMLID_16_" fill="#C1D6E9" d="M161.3,834.3L186,953.6l29.1-79.9C180.4,852,161.3,834.3,161.3,834.3z"/>
		<path id="XMLID_17_" fill="#E4E5F0" d="M215.1,873.7L186,953.6l20.2,56.4l151.4-73.8C297.4,919.9,248.9,894.9,215.1,873.7z"/>
		<path id="XMLID_18_" fill="#CCD3E4" d="M876.2,756.9L876.2,756.9c0,0-0.1,0.1-0.1,0.1L961,964l3.7-109.6L876.2,756.9z"/>
		<path id="XMLID_19_" fill="#E4E5F0" d="M771.9,857.6L771.9,857.6L946,1010l15-46l-84.8-207C847.6,792.9,812.6,827.6,771.9,857.6z"
			/>
		<path id="XMLID_20_" fill="#CCD3E4" d="M771.9,857.6L771.9,857.6L771.9,857.6c-39.2,28.9-83.7,53.3-132.4,70.3h0h0l30.4,82H946
			L771.9,857.6L771.9,857.6z"/>
		<path id="XMLID_21_" fill="#CCD3E4" d="M357.6,936.2L206.1,1010H472l28.9-56.6C448.1,954.9,399.9,947.7,357.6,936.2z"/>
		<path id="XMLID_22_" fill="#E4E5F0" d="M639.5,928c-39.1,13.6-80.9,22.5-125.1,25c-4.1,0.2-8.2,0.3-12.3,0.4c-0.4,0-0.7,0-1.1,0
			L472,1010h197.8L639.5,928L639.5,928z"/>
		<path id="XMLID_23_" fill="#E4E5F0" d="M952,768l-18.3-115.8c-8.8,20.6-14.2,42-27.9,63.4c-8.9,13.8-18.8,27.6-29.6,41.2
			l88.4,97.6L952,768z"/>
	</g>
	<polygon id="XMLID_69_" fill="#F5FAFD" points="435.7,281.2 475.5,279.1 489.2,324.1 616.6,302 398.2,264.1 388.3,303.5 	"/>
	<polygon id="XMLID_70_" fill="#E4E6EE" points="524,502.1 311.8,441.6 505.8,686.7 	"/>
	<polygon id="XMLID_71_" fill="#C1D6E9" points="311.8,441.6 302.4,709.7 505.8,686.7 	"/>
	<polygon id="XMLID_72_" fill="#201E4C" points="616.6,302 489.2,324.1 492.6,335.5 441.2,342.4 378.2,343.4 388.3,303.5 
		388.3,303.5 398.2,264.1 302.4,264.1 347.1,389.7 418.9,366.3 	"/>
	<polygon id="XMLID_73_" fill="#ECEFF3" points="418.9,366.3 347.1,389.7 311.8,441.6 524,502.1 	"/>
	<polygon id="XMLID_74_" fill="#2F3765" points="611,673.2 505.8,686.7 302.4,709.7 502.3,807.2 	"/>
	<polygon id="XMLID_75_" fill="#C1D6E9" points="437.2,874.6 502.3,807.2 302.4,709.7 430.2,872.9 	"/>
	<polygon id="XMLID_76_" fill="#F9F9FD" points="430.2,872.9 434.1,877.8 437.2,874.6 	"/>
	<polygon id="XMLID_77_" fill="#9DD0F1" points="831.8,625.6 809.1,391.8 757.7,591.2 	"/>
	<polygon id="XMLID_78_" fill="#394A83" points="502.3,807.2 683.6,752.5 757.7,591.2 611,673.2 	"/>
	<polygon id="XMLID_79_" fill="#38467D" points="831.8,625.6 757.7,591.2 683.6,752.5 	"/>
	<polygon id="XMLID_80_" fill="#D4D8E3" points="502.3,807.2 437.2,874.6 509.9,892.8 580.8,876.4 585.8,871.6 	"/>
	<polygon id="XMLID_81_" fill="#D4D8E3" points="437.2,874.6 434.1,877.8 502,952.7 580.8,876.4 509.9,892.8 	"/>
	<polygon id="XMLID_82_" fill="#C1D6E9" points="683.6,752.5 502.3,807.2 585.8,871.6 	"/>
	<polygon id="XMLID_83_" fill="#A4D6FF" points="778.6,198.2 605.7,176.5 709.2,250.5 	"/>
	<polygon id="XMLID_84_" fill="#2B3B66" points="226,646.2 302.4,709.7 240.2,535.3 	"/>
	<polygon id="XMLID_85_" fill="#0F193B" points="229.1,355.3 248,366.3 277.1,352.5 258.2,342.4 	"/>
	<polygon id="XMLID_88_" fill="#E2E8EE" points="240.2,535.3 302.4,709.7 311.8,441.6 	"/>
	<polygon id="XMLID_89_" fill="#E4E5F0" points="585.8,871.6 608.8,869.9 753.9,836.2 753.9,836.2 683.6,752.5 	"/>
	<polygon id="XMLID_91_" fill="#97D3F0" points="866.8,473.3 809.1,391.8 831.8,625.6 	"/>
	<polygon id="XMLID_92_" fill="#73BCF1" points="377.7,226.4 302.4,264.1 398.2,264.1 	"/>
	<polygon id="XMLID_93_" fill="#303D6B" points="611,673.2 612.8,553.3 616.6,302 524,502.1 	"/>
	<polygon id="XMLID_94_" fill="#D9DAE1" points="524,502.1 616.6,302 418.9,366.3 	"/>
	<polygon id="XMLID_95_" fill="#E7F0FA" points="757.7,591.2 612.8,553.3 611,673.2 	"/>
	<polygon id="XMLID_96_" fill="#9DD0F1" points="511.4,208.8 398.2,264.1 616.6,302 	"/>
	<polygon id="XMLID_97_" fill="#1F1F45" points="505.8,686.7 611,673.2 524,502.1 	"/>
	<polygon id="XMLID_98_" fill="#E3DEE4" points="226,646.2 133.4,682.5 302.4,709.7 	"/>
	<polygon id="XMLID_99_" fill="#B5E8F3" points="150.6,583.7 133.4,682.5 226,646.2 	"/>
	<path id="XMLID_100_" fill="#F2F3F7" d="M500.9,953.4c0.4,0,0.7,0,1.1,0l0-0.6C502,952.7,501.6,953,500.9,953.4z"/>
	<path id="XMLID_7_" fill="#CCD3E4" d="M434.1,877.8l-3.9-4.9L302.4,709.7l-57,112.3l-4.1,7.1l-26.1,44.7
		c33.7,21.2,82.3,46.1,142.4,62.4L434.1,877.8L434.1,877.8z"/>
	<polygon id="XMLID_103_" fill="#E3E5EF" points="580.8,876.4 588.6,874.6 585.8,871.6 	"/>
	<path id="XMLID_104_" fill="#E3E5EF" d="M580.8,876.4L502,952.7l0,0.6c4.1-0.1,8.2-0.2,12.3-0.4c44.2-2.4,86.1-11.3,125.1-25
		l-50.9-53.4L580.8,876.4z"/>
	<polygon id="XMLID_105_" fill="#C1D6E9" points="302.4,709.7 133.4,682.5 245.4,821.9 	"/>
	<polygon id="XMLID_106_" fill="#D4DAEA" points="245.4,821.9 133.4,682.5 161.3,834.3 241.2,829 	"/>
	<path id="XMLID_107_" fill="#D4DAEA" d="M241.2,829l-80,5.3c0,0,19.1,17.7,53.8,39.5L241.2,829z"/>
	<path id="XMLID_108_" fill="#C1D6E9" d="M434.1,877.8l-76.5,58.4c42.4,11.5,90.5,18.7,143.4,17.2c0.6-0.4,1-0.7,1-0.7L434.1,877.8z
		"/>
	<path id="XMLID_4_" fill="#CCD3E4" d="M892.3,699.2l-60.5-73.6L683.6,752.5l151.4,3.4l41.2,0.9c10.8-13.6,20.7-27.4,29.6-41.2
		L892.3,699.2z"/>
	<path id="XMLID_5_" fill="#C1D6E9" d="M926.8,636.3l-95-10.7l60.5,73.6l13.5,16.4c13.8-21.4,19.1-42.8,27.9-63.4L926.8,636.3z"/>
	<polygon id="XMLID_113_" fill="#B5E8F3" points="926.8,636.3 925.4,633.2 866.8,473.3 831.8,625.6 	"/>
	<polygon id="XMLID_114_" fill="#F2F3F7" points="771.9,857.7 771.9,857.6 771.9,857.6 	"/>
	<polygon id="XMLID_115_" fill="#F4F5F7" points="588.6,874.6 608.8,869.9 585.8,871.6 	"/>
	<path id="XMLID_6_" fill="#C1D6E9" d="M753.9,836.2l-145.1,33.7l-20.2,4.7l50.9,53.4c48.8-17,93.2-41.5,132.4-70.3l0,0L753.9,836.2
		z"/>
	<path id="XMLID_2_" fill="#C1D6E9" d="M835,755.9l-151.4-3.4l70.3,83.7l18,21.4v0c40.8-30,75.8-64.8,104.3-100.8L835,755.9z"/>
	<polygon id="XMLID_120_" fill="#97D3F0" points="240.2,535.3 222,484.5 150.6,583.7 226,646.2 	"/>
	<polygon id="XMLID_121_" fill="#81B8EE" points="616.6,302 709.2,250.5 605.7,176.5 511.4,208.8 	"/>
	<polygon id="XMLID_122_" fill="#A4D6FF" points="605.7,176.5 418.2,172.9 511.4,208.8 	"/>
	<polygon id="XMLID_123_" fill="#81B8EE" points="757.7,591.2 809.1,391.8 673.9,366.3 	"/>
	<polygon id="XMLID_124_" fill="#46ACF3" points="757.7,591.2 673.9,366.3 809.1,391.8 709.2,250.5 612.8,553.3 	"/>
	<polygon id="XMLID_125_" fill="#A4D6FF" points="377.7,226.4 418.2,172.9 387.6,185.3 418.2,172.9 310.1,204.7 302.4,264.1 	"/>
	<polygon id="XMLID_126_" fill="#201E48" points="612.8,553.3 709.2,250.5 616.6,302 	"/>
	<polygon id="XMLID_127_" fill="#B5E8F3" points="398.2,264.1 511.4,208.8 418.2,172.9 377.7,226.4 	"/>
	<polygon id="XMLID_128_" fill="#8A9FC0" points="213.6,318.7 32,374.7 28.9,383.5 24.1,389.7 143.1,389.7 	"/>
	<polygon id="XMLID_129_" fill="#212B61" points="347.1,389.7 143.1,389.7 24.1,389.7 203.1,423.2 311.8,441.6 	"/>
	<polygon id="XMLID_130_" fill="#97D3F0" points="310.1,204.7 247.2,245.2 302.4,264.1 	"/>
	<polygon id="XMLID_131_" fill="#CACEE1" points="311.8,441.6 203.1,423.2 222,484.5 240.2,535.3 	"/>
	<polygon id="XMLID_132_" fill="#6F82AE" points="347.1,389.7 277.1,352.5 248,366.3 229.1,355.3 258.2,342.4 213.6,318.7 
		143.1,389.7 	"/>
	<polygon id="XMLID_133_" fill="#B5E8F3" points="277.1,352.5 347.1,389.7 302.4,264.1 247.2,245.2 213.6,318.7 258.2,342.4 	"/>
	<polygon id="XMLID_134_" fill="#421D0F" points="439.6,312.9 428.8,318.6 378.2,343.4 440.6,332.6 	"/>
	<polygon id="XMLID_135_" fill="#421D0F" points="378.2,343.4 441.2,342.4 440.6,332.6 	"/>
	<polygon id="XMLID_136_" fill="#472314" points="435.7,281.2 388.3,303.5 378.2,343.4 428.8,318.6 	"/>
	<polygon id="XMLID_137_" fill="#472314" points="388.3,303.5 378.2,343.4 388.3,303.5 	"/>
	<polygon id="XMLID_138_" fill="#4E2D28" points="440.6,332.6 479.6,325.8 452.9,305.9 439.6,312.9 	"/>
	<polygon id="XMLID_139_" fill="#4E2D28" points="440.6,332.6 441.2,342.4 492.6,335.5 479.6,325.8 	"/>
	<polygon id="XMLID_140_" fill="#402D30" points="435.7,281.2 452.9,305.9 479.6,325.8 489.2,324.1 475.5,279.1 	"/>
	<polygon id="XMLID_141_" fill="#402D30" points="492.6,335.5 489.2,324.1 479.6,325.8 	"/>
	<polygon id="XMLID_142_" fill="#FFFFF9" points="439.6,312.9 452.9,305.9 435.7,281.2 428.8,318.6 	"/>
</g>
</svg>
