<?xml version="1.0" encoding="utf-8"?>
<!-- Generator: Adobe Illustrator 19.0.0, SVG Export Plug-In . SVG Version: 6.00 Build 0)  -->
<svg version="1.1" id="Layer_1" xmlns="http://www.w3.org/2000/svg" xmlns:xlink="http://www.w3.org/1999/xlink" x="0px" y="0px"
	 viewBox="0 0 1024 1024" enable-background="new 0 0 1024 1024" xml:space="preserve">
<g id="XMLID_688_">
	<g id="XMLID_690_">
		<g id="XMLID_714_">
		</g>
		<g id="XMLID_710_">
		</g>
		<g id="XMLID_706_">
		</g>
		<g id="XMLID_702_">
		</g>
		<g id="XMLID_698_">
		</g>
	</g>
</g>
<g id="XMLID_1_">
	<linearGradient id="XMLID_3_" gradientUnits="userSpaceOnUse" x1="15.5532" y1="512.0013" x2="1008.4446" y2="512.0013">
		<stop  offset="0" style="stop-color:#1344C4"/>
		<stop  offset="1" style="stop-color:#4B87EF"/>
	</linearGradient>
	<circle id="XMLID_119_" fill="url(#XMLID_3_)" cx="512" cy="512" r="496.4"/>
	<g id="XMLID_116_">
		<g id="XMLID_32_">
			<polygon id="XMLID_130_" fill="none" points="837.8,447.3 837.8,447.3 837.8,447.3 			"/>
			<polygon id="XMLID_131_" fill="none" points="837.8,447.3 837.8,447.3 837.8,447.3 			"/>
			<polygon id="XMLID_132_" fill="none" points="837.8,447.3 837.8,447.3 837.8,447.3 			"/>
			<polygon id="XMLID_59_" fill="#F5FAFD" points="426.9,319.6 406.9,398.9 645.3,357.5 			"/>
			<polygon id="XMLID_64_" fill="#E4E6EE" points="340.4,497.1 534.4,742.2 552.7,557.6 			"/>
			<polygon id="XMLID_65_" fill="#C1D6E9" points="340.4,497.1 331,765.2 534.4,742.2 			"/>
			<polygon id="XMLID_37_" fill="#201E4C" points="406.9,398.9 426.9,319.6 331,319.6 375.7,445.2 447.5,421.8 645.3,357.5 			"/>
			<polygon id="XMLID_63_" fill="#ECEFF3" points="447.5,421.8 375.7,445.2 340.4,497.1 552.7,557.6 			"/>
			<polygon id="XMLID_74_" fill="#2F3765" points="534.4,742.2 331,765.2 530.9,862.7 639.7,728.7 			"/>
			<polygon id="XMLID_73_" fill="#F9F9FD" points="331,765.2 462.7,933.3 530.9,862.7 			"/>
			<polygon id="XMLID_84_" fill="#9DD0F1" points="837.8,447.3 786.3,646.7 860.4,681.1 			"/>
			<polygon id="XMLID_85_" fill="#394A83" points="639.7,728.7 530.9,862.7 712.3,808 786.3,646.7 			"/>
			<polygon id="XMLID_142_" fill="#38467D" points="712.3,808 860.4,681.1 786.3,646.7 			"/>
			<polygon id="XMLID_89_" fill="#D4D8E3" points="530.9,862.7 462.7,933.3 530.6,1008.2 614.4,927.1 			"/>
			<polygon id="XMLID_145_" fill="#FCF7FA" points="614.4,927.1 712.3,808 530.9,862.7 			"/>
			<polygon id="XMLID_147_" fill="#A4D6FF" points="807.2,253.7 634.4,232 737.8,306 			"/>
			<polygon id="XMLID_71_" fill="#2B3B66" points="268.8,590.8 254.6,701.7 331,765.2 			"/>
			<polygon id="XMLID_152_" fill="#0F193B" points="286.8,397.9 257.7,410.8 276.7,421.8 305.8,408 286.8,397.9 			"/>
			<polygon id="XMLID_153_" fill="#DDE0EA" points="274,877.4 462.7,933.3 331,765.2 			"/>
			<polygon id="XMLID_154_" fill="#E2E8EE" points="268.8,590.8 331,765.2 340.4,497.1 			"/>
			<polygon id="XMLID_155_" fill="#E4E5F0" points="800.5,913.1 712.3,808 614.4,927.1 			"/>
			<polygon id="XMLID_165_" fill="#97D3F0" points="895.4,528.8 837.8,447.3 860.4,681.1 			"/>
			<polygon id="XMLID_167_" fill="#73BCF1" points="406.3,281.9 331,319.6 426.9,319.6 			"/>
			<polygon id="XMLID_168_" fill="none" stroke="#000000" stroke-width="1.7636" stroke-miterlimit="10" points="641.5,608.8 
				641.5,608.8 641.5,608.8 			"/>
			<polygon id="XMLID_76_" fill="#303D6B" points="552.7,557.6 639.7,728.7 641.5,608.8 645.3,357.5 			"/>
			<polygon id="XMLID_36_" fill="#D9DAE1" points="447.5,421.8 552.7,557.6 645.3,357.5 			"/>
			<polygon id="XMLID_171_" fill="#E7F0FA" points="639.7,728.7 786.3,646.7 641.5,608.8 641.5,608.8 			"/>
			<polygon id="XMLID_172_" fill="#9DD0F1" points="540,264.3 426.9,319.6 645.3,357.5 			"/>
			<polygon id="XMLID_75_" fill="#1F1F45" points="552.7,557.6 534.4,742.2 639.7,728.7 			"/>
			<polygon id="XMLID_182_" fill="#E3DEE4" points="254.6,701.7 162,738 331,765.2 			"/>
			<polygon id="XMLID_187_" fill="#B5E8F3" points="179.2,639.2 162,738 254.6,701.7 			"/>
			<path id="XMLID_188_" fill="none" stroke="#000000" stroke-width="1.7636" stroke-miterlimit="10" d="M529.6,1008.9
				c0.4,0,0.7,0,1.1,0l0-0.6C530.6,1008.2,530.2,1008.5,529.6,1008.9z"/>
			<path id="XMLID_189_" fill="#F1F2F5" d="M274,877.4l-30.3,51.8c33.7,21.2,82.3,46.1,142.4,62.4l76.5-58.4L274,877.4z"/>
			<path id="XMLID_190_" fill="#E3E5EF" d="M530.6,1008.2l0,0.6c4.1-0.1,8.2-0.2,12.3-0.4c44.2-2.4,86.1-11.3,125.1-25l-53.7-56.4
				L530.6,1008.2z"/>
			<polygon id="XMLID_70_" fill="#F3F4F9" points="162,738 274,877.4 331,765.2 			"/>
			<path id="XMLID_72_" fill="#D4DAEA" d="M162,738l27.9,151.8c0,0,19.1,17.7,53.8,39.5l30.3-51.8L162,738z"/>
			<path id="XMLID_193_" fill="#E4E6F0" d="M462.7,933.3l-76.5,58.4c42.4,11.5,90.5,18.7,143.4,17.2c0.6-0.4,1-0.7,1-0.7
				L462.7,933.3z"/>
			<path id="XMLID_194_" fill="#CCD3E4" d="M712.3,808l192.6,4.4c10.8-13.6,20.7-27.4,29.6-41.2l-74-90L712.3,808z"/>
			<path id="XMLID_198_" fill="#C1D6E9" d="M934.4,771.1c13.8-21.4,25.2-42.8,33.9-63.4l-7-15.9l-101-10.7L934.4,771.1z"/>
			<polygon id="XMLID_199_" fill="#B5E8F3" points="895.4,528.8 860.4,681.1 961.4,691.8 960,688.7 			"/>
			<polygon id="XMLID_200_" fill="none" stroke="#000000" stroke-width="1.7636" stroke-miterlimit="10" points="800.5,913.1 
				800.5,913.1 800.5,913.1 			"/>
			<path id="XMLID_201_" fill="#F4F5F7" d="M614.4,927.1l53.7,56.4c48.8-17,93.2-41.5,132.4-70.3l0,0L614.4,927.1z"/>
			<path id="XMLID_202_" fill="#F2F3F7" d="M800.5,913.1L800.5,913.1c40.8-30,75.8-64.8,104.3-100.8L712.3,808L800.5,913.1z"/>
			<polygon id="XMLID_69_" fill="#97D3F0" points="250.7,540 179.2,639.2 254.6,701.7 268.8,590.8 			"/>
			<polygon id="XMLID_99_" fill="#81B8EE" points="634.4,232 540,264.3 645.3,357.5 737.8,306 			"/>
			<polygon id="XMLID_100_" fill="#A4D6FF" points="446.8,228.4 540,264.3 634.4,232 			"/>
			<polygon id="XMLID_82_" fill="#81B8EE" points="702.6,421.8 786.3,646.7 837.8,447.3 			"/>
			<polygon id="XMLID_80_" fill="#46ACF3" points="837.8,447.3 737.8,306 641.5,608.8 786.3,646.7 702.6,421.8 			"/>
			<polygon id="XMLID_213_" fill="#A4D6FF" points="406.3,281.9 446.8,228.4 416.3,240.8 446.8,228.4 338.7,260.2 331,319.6 			"/>
			<polygon id="XMLID_108_" fill="#201E48" points="645.3,357.5 641.5,608.8 737.8,306 			"/>
			<polygon id="XMLID_101_" fill="#B5E8F3" points="446.8,228.4 406.3,281.9 426.9,319.6 540,264.3 			"/>
			<polygon id="XMLID_216_" fill="#8A9FC0" points="242.3,374.2 60.6,430.2 57.5,439 52.7,445.2 171.7,445.2 			"/>
			<polygon id="XMLID_107_" fill="#212B61" points="171.7,445.2 52.7,445.2 231.7,478.7 340.4,497.1 375.7,445.2 			"/>
			<polygon id="XMLID_218_" fill="#97D3F0" points="338.7,260.2 275.8,300.7 331,319.6 			"/>
			<polygon id="XMLID_66_" fill="#CACEE1" points="231.7,478.7 250.7,540 268.8,590.8 340.4,497.1 			"/>
			<polygon id="XMLID_220_" fill="#6F82AE" points="375.7,445.2 305.8,408 276.7,421.8 257.7,410.8 286.8,397.9 286.8,397.9 
				242.3,374.2 171.7,445.2 			"/>
			<polygon id="XMLID_106_" fill="#B5E8F3" points="331,319.6 275.8,300.7 242.3,374.2 286.8,397.9 305.8,408 375.7,445.2 			"/>
		</g>
		<g id="XMLID_54_">
			<polygon id="XMLID_115_" fill="#421D0F" points="457.4,374.1 468.2,368.4 469.8,397.9 406.9,398.9 			"/>
			<polygon id="XMLID_113_" fill="#472314" points="464.3,336.7 457.4,374.1 406.9,398.9 416.9,359 			"/>
			<polygon id="XMLID_112_" fill="#4E2D28" points="481.5,361.3 521.2,391 469.8,397.9 468.2,368.4 			"/>
			<polygon id="XMLID_111_" fill="#402D30" points="504.2,334.6 521.2,391 481.5,361.3 464.3,336.7 			"/>
			<polygon id="XMLID_109_" fill="#FFFFF9" points="464.3,336.7 481.5,361.3 468.2,368.4 457.4,374.1 			"/>
		</g>
	</g>
	<path id="XMLID_120_" fill="#014BA6" d="M512,1015.5C234.4,1015.5,8.5,789.6,8.5,512C8.5,234.4,234.4,8.5,512,8.5
		s503.5,225.9,503.5,503.5C1015.5,789.6,789.6,1015.5,512,1015.5z M512,22.6C242.1,22.6,22.6,242.2,22.6,512
		s219.5,489.4,489.4,489.4s489.4-219.5,489.4-489.4S781.9,22.6,512,22.6z"/>
</g>
</svg>
