<svg width="611" height="140" viewBox="0 0 611 140" fill="none" xmlns="http://www.w3.org/2000/svg">
<path fill-rule="evenodd" clip-rule="evenodd" d="M134.7 35.8439L135.274 37.2788L142.965 42.2061L137.842 47.3253L138.13 49.6224C138.404 51.8143 138.515 53.9612 138.515 56.0093C138.515 83.6298 131.04 104.325 116.777 117.97L116.773 117.973C97.192 136.774 70.5495 136.259 69.3661 136.236L69.3278 136.235H69.2696C48.5396 136.235 32.2572 129.933 20.6941 117.774L20.6922 117.772C9.68097 106.215 4.47114 91.018 2.04391 78.4573C-0.263614 66.5161 -0.00615188 57.2445 0.0224059 56.216C0.0237824 56.1665 0.0246271 56.1361 0.0246271 56.1254V37.7475H40.9395V0H79.2659C90.9832 0 105.14 3.55715 114.437 10.0598L114.439 10.0611C123.631 16.48 130.656 25.3811 134.694 35.8282L134.7 35.8439ZM128.116 62.3973V59.5785L127.942 56.0673C127.942 43.5333 122.188 30.3404 111.727 21.8782L111.724 21.8755C101.047 13.2655 86.3193 10.3906 70.6645 10.3906H51.2218V56.1107L51.1056 67.1445V67.1593C51.1056 72.0148 52.8647 76.5951 56.2429 79.9064C59.6029 83.258 64.1714 85.019 69.0372 85.019H69.0953C78.6758 85.019 86.4233 77.1641 86.9644 67.4318L86.965 67.4215L86.9655 67.4111C87.2279 61.9704 85.7115 57.2053 82.0173 53.7285C77.783 49.717 71.9186 48.5217 67.848 48.2223V37.6314C73.2685 37.682 82.4327 38.7204 89.031 44.4827C94.4593 49.2498 97.4835 56.7243 97.4835 67.1593C97.4835 74.8817 94.4755 82.0486 88.9238 87.4375C83.4255 92.773 76.142 95.6222 68.417 95.4107C53.3235 94.9895 40.9395 82.0689 40.9395 66.4624V48.1962H10.4232V56.1835C10.4232 82.1035 17.1586 101.749 31.025 113.934L31.0281 113.937C43.5571 124.915 58.1322 126.425 65.2595 126.425C67.4711 126.425 69.0406 126.269 69.6948 126.185C71.7738 126.089 85.1105 125.271 98.659 117.704C112.191 110.144 128.116 94.3534 128.116 62.3973Z" fill="black"/>
<path d="M199.921 57.2282C195.73 61.974 193.635 68.9996 193.635 78.305C193.635 87.6105 195.73 94.6361 199.921 99.3819C204.205 104.128 209.42 106.501 215.566 106.501C222.178 106.501 227.393 104.035 231.211 99.1027C235.122 94.0778 237.078 87.1452 237.078 78.305C237.078 69.4649 235.122 62.5788 231.211 57.6469C227.393 52.622 222.178 50.1095 215.566 50.1095C209.42 50.1095 204.205 52.4824 199.921 57.2282ZM181.482 14.3766H194.193V52.3428C199.222 43.5957 207.417 39.2221 218.779 39.2221C227.812 39.2221 235.402 42.7582 241.548 49.8304C247.787 56.9025 250.907 66.3941 250.907 78.305C250.907 90.3091 247.787 99.8471 241.548 106.919C235.402 113.898 227.812 117.388 218.779 117.388C207.417 117.388 199.222 113.014 194.193 104.267V115.573H181.482V14.3766Z" fill="black"/>
<path d="M276.208 14.3766V115.573H263.496V14.3766H276.208Z" fill="black"/>
<path d="M339.128 115.573V104.826C334.006 113.2 326.136 117.388 315.52 117.388C299.502 117.388 291.494 107.757 291.494 88.4945V40.4784H304.205V84.7258C304.205 91.6118 305.23 96.9625 307.278 100.778C309.42 104.5 313.658 106.361 319.99 106.361C326.136 106.361 330.839 104.267 334.099 100.08C337.451 95.8923 339.128 89.7973 339.128 81.7946V40.4784H351.839V115.573H339.128Z" fill="black"/>
<path d="M436.476 82.2133H378.645C378.831 89.8438 381.206 95.7528 385.769 99.9402C390.425 104.128 395.78 106.221 401.833 106.221C411.891 106.221 418.736 102.08 422.368 93.7986H435.498C433.729 100.592 429.864 106.221 423.904 110.688C417.944 115.155 410.587 117.388 401.833 117.388C390.286 117.388 381.253 113.712 374.734 106.361C368.215 99.0097 364.955 89.6112 364.955 78.1655C364.955 66.4406 368.401 57.0421 375.292 49.9699C382.184 42.8047 390.891 39.2221 401.414 39.2221C412.683 39.2221 421.53 43.3631 427.955 51.6449C434.381 59.8337 437.221 70.0232 436.476 82.2133ZM401.414 50.1095C395.361 50.1095 390.193 51.8776 385.909 55.4136C381.718 58.9497 379.343 64.2538 378.785 71.3259H423.066C422.88 65.6496 420.831 60.7177 416.92 56.5303C413.008 52.2498 407.84 50.1095 401.414 50.1095Z" fill="black"/>
<path d="M449.41 119.621V40.4784H462.122V119.342C462.122 127.345 460.911 132.788 458.49 135.673C456.162 138.558 451.459 140 444.381 140H437.956V129.392H441.588C444.847 129.392 446.942 128.741 447.874 127.438C448.898 126.228 449.41 123.623 449.41 119.621ZM449.41 14.3766H462.122V29.7306H449.41V14.3766Z" fill="black"/>
<path d="M527.76 84.1675V79.4217C515.002 80.6314 505.503 82.3994 499.264 84.7258C493.117 87.0522 490.044 90.6348 490.044 95.4736C490.044 99.1027 491.348 101.987 493.955 104.128C496.563 106.268 500.102 107.338 504.572 107.338C511.277 107.338 516.818 105.523 521.195 101.894C525.572 98.2652 527.76 92.3563 527.76 84.1675ZM501.778 117.388C494.421 117.388 488.275 115.48 483.339 111.665C478.403 107.757 475.936 102.453 475.936 95.7528C475.936 91.4722 477.053 87.7966 479.288 84.7258C481.616 81.655 485.155 79.1425 489.905 77.1884C494.747 75.1412 500.009 73.5592 505.689 72.4426C511.37 71.3259 518.401 70.3023 526.782 69.3718V67.5572C526.782 55.3671 521.102 49.272 509.74 49.272C504.525 49.272 500.428 50.5748 497.448 53.1803C494.468 55.7858 492.838 59.4615 492.559 64.2073H479.428C479.987 56.4838 483.199 50.3422 489.066 45.7825C495.026 41.2228 501.871 38.943 509.601 38.943C519.938 38.943 527.527 41.4555 532.37 46.4804C537.212 51.5053 539.587 59.3219 539.494 69.9301L539.354 87.2383C539.261 99.4284 539.913 108.873 541.31 115.573H528.459C527.9 111.944 527.574 108.501 527.481 105.244C522.731 113.34 514.164 117.388 501.778 117.388Z" fill="black"/>
<path d="M597.639 40.4784H610.91L584.089 118.784C582.041 124.646 580.132 128.927 578.362 131.625C576.686 134.417 574.265 136.511 571.098 137.906C567.932 139.302 563.555 140 557.968 140H551.402V129.392H556.571C561.32 129.392 564.719 128.694 566.768 127.298C568.91 125.902 570.773 122.506 572.356 117.109L572.914 115.573L545.815 40.4784H559.923L579.061 98.4048L597.639 40.4784Z" fill="black"/>
</svg>
