<?xml version="1.0" encoding="utf-8"?>
<!-- Generator: Adobe Illustrator 26.0.0, SVG Export Plug-In . SVG Version: 6.00 Build 0)  -->
<svg version="1.1" id="Layer_1" xmlns="http://www.w3.org/2000/svg" xmlns:xlink="http://www.w3.org/1999/xlink" x="0px" y="0px"
	 viewBox="0 0 2800 900" style="enable-background:new 0 0 2800 900;" xml:space="preserve">
<style type="text/css">
	.st0{fill:#333333;}
	.st1{fill:#266CBE;}
	.st2{fill:#F8F8F8;}
	.st3{fill:#FFFFFF;}
</style>
<rect y="0" class="st1" width="2800" height="900"/>
<g>
	<path class="st3" d="M771.1,349.2l-0.7-1.8c-13.1-33.7-35.7-62.5-65.5-83.2c-30.4-21.2-75.8-32.5-113.1-32.5H465.4v116.2H339.5
		l0,65.3c-0.1,1.2-5,121.2,65.9,195.6c37.6,39.5,90,59.5,155.7,59.5l0.3,0c0.9,0,87.9,2.9,151.9-58.5
		c46.1-44.2,69.5-110.5,69.5-196.9c0-6.7-0.4-13.6-1.2-20.7l-0.3-2.9l20.4-20.4L771.1,349.2z M733.4,432.3
		c0,94.6-46.9,140.6-86.2,162.6c-40.9,22.8-81.3,24.8-85.6,24.9c-1.3,0.2-5.9,0.6-12.8,0.6c-21,0-63.3-4.5-99.6-36.3
		c-40-35.1-60.4-92.8-60.4-171.3v-15.7h76.6v47.5c0,52.5,41.7,96.4,93,97.8c26.1,0.8,50.7-8.9,69.4-27.1c18.7-18.2,29-42.5,29-68.6
		c0-33.8-9.8-59.5-29-76.3c-26.9-23.6-65.6-23.9-79.4-23.1v49.5c10.8-0.2,32.3,1.6,46.2,14.8c9.1,8.7,13.3,20.6,12.4,35.4
		c-1.4,25.7-21.7,45.9-46.2,46c0,0-0.1,0-0.1,0c-12.8,0-24.6-4.7-33.2-13.3c-8.5-8.5-13.2-20.2-13.2-33.1l0.4-34V281H566
		c47.3,0,90.2,8.8,120.8,33.4c30.1,24.2,46.6,62.3,46.6,98.5V432.3z"/>
	<path class="st3" d="M1029.9,568.3c11.1-2.3,21-6.1,29.6-11.5c8.6-5.4,15.5-12.5,20.8-21.3c5.3-8.8,7.9-19.9,7.9-33.2
		c0-7.8-1.3-15.1-4-21.8c-2.6-6.8-6.2-12.7-10.8-17.9c-4.6-5.2-10.1-9.4-16.7-12.7c-6.5-3.3-13.6-5.5-21.1-6.4v-0.7
		c12.6-3.9,22.8-10.3,30.6-19.3c7.8-9,11.7-20.3,11.7-34.1c0-11-2.2-20.4-6.5-28.2c-4.4-7.8-10-14.2-17-19.1
		c-7-4.9-15-8.5-23.9-10.7c-8.9-2.2-18-3.3-27.2-3.3h-94.9v243.5H996C1007.5,571.8,1018.8,570.6,1029.9,568.3z M951.6,365.4h35.8
		c16.5,0,28.5,2.6,35.9,7.8c7.4,5.1,11.2,13,11.2,23.5c0,9.2-3.6,16.6-10.8,22.2c-7.2,5.6-18.1,8.4-32.5,8.4h-39.6V365.4z
		 M951.6,534.6v-70.2h41.6c17.6,0,30.7,2.5,39,7.6c8.4,5.1,12.6,14,12.6,26.8c0,8-1.7,14.4-5.2,19.1c-3.4,4.7-7.8,8.3-13.1,10.8
		c-5.3,2.5-11.1,4.1-17.4,4.8c-6.3,0.7-12.2,1-17.7,1H951.6z"/>
	<polygon class="st3" points="1295.2,532.5 1191.7,532.5 1191.7,328.2 1148.4,328.2 1148.4,571.8 1295.2,571.8 	"/>
	<path class="st3" d="M1371.1,549.1c8.8,8.2,19.2,14.6,31.1,19.1c11.9,4.4,24.9,6.7,38.9,6.7c14,0,26.9-2.2,38.9-6.7
		c11.9-4.5,22.2-10.9,31-19.1c8.7-8.3,15.6-18.3,20.6-30.1c5.1-11.8,7.6-25.1,7.6-39.7V325.1h-43.3v152.7c0,6-0.9,12.2-2.8,18.8
		c-1.8,6.5-4.9,12.5-9.1,18.1c-4.3,5.5-9.9,10-16.9,13.6c-7,3.6-15.6,5.3-26,5.3c-10.3,0-19-1.8-26-5.3c-7-3.6-12.6-8.1-16.8-13.6
		c-4.2-5.5-7.3-11.5-9.1-18.1c-1.8-6.5-2.8-12.8-2.8-18.8V325.1h-43.3v154.1c0,14.7,2.5,27.9,7.4,39.7
		C1355.4,530.8,1362.3,540.8,1371.1,549.1z"/>
	<polygon class="st3" points="1777.1,532.5 1652.9,532.5 1652.9,466.5 1764.7,466.5 1764.7,427.3 1652.9,427.3 1652.9,367.5 
		1770.9,367.5 1770.9,328.2 1609.6,328.2 1609.6,571.8 1777.1,571.8 	"/>
	<path class="st3" d="M1835.8,561.4c12.3,8.9,28,13.4,47.3,13.4c12.1,0,22.8-2,32-6c9.2-4,16.8-9.4,22.9-16.2
		c6.1-6.8,10.6-14.6,13.8-23.6c3.1-9,4.6-18.2,4.6-27.9V325.1H1913v163.4c0,14.7-2.2,26.2-6.7,34.6c-4.5,8.4-12.9,12.5-25.3,12.5
		c-7.6,0-13.9-2.4-19.1-7.2c-5.2-4.8-8.4-11.2-9.8-19.3l-40.6,9.6C1815.4,538.3,1823.5,552.5,1835.8,561.4z"/>
	<path class="st3" d="M2069.5,516h105.6l22.7,55.7h49.5l-104.9-243.5h-37.5L1999,571.8h48.5L2069.5,516z M2122.5,379.8l37.5,99.1
		h-75.7L2122.5,379.8z"/>
	<polygon class="st3" points="2325.7,571.8 2369.1,571.8 2369.1,467.6 2460.6,328.2 2409,328.2 2348.4,425.2 2288.6,328.2 
		2234.2,328.2 2325.7,467.6 	"/>
</g>
</svg>
