<svg width="438" height="306" viewBox="0 0 438 306" fill="none" xmlns="http://www.w3.org/2000/svg">
<rect x="0.142883" width="437.143" height="306" fill="black"/>
<path fill-rule="evenodd" clip-rule="evenodd" d="M144.181 138.046L144.432 138.672L147.789 140.823L145.553 143.057L145.678 144.06C145.798 145.017 145.846 145.954 145.846 146.848C145.846 158.904 142.584 167.937 136.358 173.893L136.356 173.895C127.809 182.101 116.18 181.876 115.663 181.866L115.647 181.866H115.621C106.573 181.866 99.4658 179.115 94.4185 173.808L94.4177 173.807C89.6114 168.762 87.3374 162.129 86.2779 156.646C85.2707 151.434 85.3831 147.387 85.3955 146.938C85.3961 146.917 85.3965 146.903 85.3965 146.899V138.877H103.256V122.4H119.985C125.099 122.4 131.279 123.953 135.336 126.791L135.337 126.792C139.35 129.594 142.416 133.479 144.179 138.039L144.181 138.046ZM141.307 149.636V148.406H141.231V146.873C141.231 141.402 138.72 135.644 134.154 131.95L134.152 131.949C129.492 128.191 123.063 126.936 116.23 126.936H107.744V146.892L107.693 151.708V151.715C107.693 153.834 108.461 155.834 109.935 157.279C111.402 158.742 113.396 159.511 115.52 159.511H115.545C119.727 159.511 123.109 156.082 123.345 151.834L123.345 151.829L123.345 151.825C123.46 149.45 122.798 147.37 121.186 145.852C119.337 144.101 116.778 143.58 115.001 143.449V138.826C117.367 138.848 121.367 139.302 124.247 141.817C126.616 143.898 127.937 147.16 127.937 151.715C127.937 155.086 126.624 158.214 124.2 160.566C121.8 162.895 118.621 164.139 115.249 164.046C108.661 163.863 103.256 158.223 103.256 151.411V143.438H89.9354V146.924C89.9354 158.238 92.8753 166.813 98.9279 172.132L98.9293 172.133C104.398 176.925 110.76 177.584 113.871 177.584C114.836 177.584 115.521 177.516 115.807 177.479C116.714 177.437 122.536 177.08 128.45 173.777C134.356 170.477 141.307 163.585 141.307 149.636Z" fill="white"/>
<path d="M172.65 147.38C170.82 149.452 169.906 152.518 169.906 156.58C169.906 160.642 170.82 163.708 172.65 165.78C174.519 167.851 176.796 168.887 179.479 168.887C182.365 168.887 184.641 167.811 186.307 165.658C188.015 163.465 188.868 160.439 188.868 156.58C188.868 152.721 188.015 149.716 186.307 147.563C184.641 145.369 182.365 144.273 179.479 144.273C176.796 144.273 174.519 145.309 172.65 147.38ZM164.601 128.676H170.15V145.248C172.345 141.43 175.922 139.521 180.881 139.521C184.824 139.521 188.137 141.064 190.82 144.151C193.543 147.238 194.905 151.381 194.905 156.58C194.905 161.82 193.543 165.983 190.82 169.07C188.137 172.116 184.824 173.639 180.881 173.639C175.922 173.639 172.345 171.73 170.15 167.912V172.847H164.601V128.676Z" fill="white"/>
<path d="M205.948 128.676V172.847H200.4V128.676H205.948Z" fill="white"/>
<path d="M233.412 172.847V168.156C231.176 171.811 227.742 173.639 223.108 173.639C216.116 173.639 212.62 169.435 212.62 161.028V140.069H218.169V159.383C218.169 162.388 218.616 164.724 219.51 166.389C220.445 168.014 222.295 168.826 225.059 168.826C227.742 168.826 229.794 167.912 231.217 166.084C232.68 164.257 233.412 161.596 233.412 158.103V140.069H238.961V172.847H233.412Z" fill="white"/>
<path d="M275.904 158.286H250.661C250.743 161.616 251.779 164.196 253.771 166.023C255.803 167.851 258.141 168.765 260.783 168.765C265.173 168.765 268.16 166.958 269.746 163.343H275.477C274.705 166.308 273.018 168.765 270.416 170.715C267.815 172.664 264.604 173.639 260.783 173.639C255.742 173.639 251.799 172.035 248.954 168.826C246.109 165.617 244.686 161.515 244.686 156.519C244.686 151.401 246.19 147.299 249.198 144.212C252.206 141.084 256.007 139.521 260.6 139.521C265.518 139.521 269.38 141.328 272.185 144.943C274.989 148.517 276.229 152.965 275.904 158.286ZM260.6 144.273C257.958 144.273 255.702 145.045 253.832 146.588C252.003 148.131 250.966 150.447 250.722 153.534H270.051C269.969 151.056 269.075 148.903 267.368 147.075C265.661 145.207 263.405 144.273 260.6 144.273Z" fill="white"/>
<path d="M281.55 174.614V140.069H287.098V174.492C287.098 177.985 286.57 180.361 285.513 181.621C284.497 182.88 282.444 183.509 279.355 183.509H276.55V178.879H278.135C279.558 178.879 280.472 178.595 280.879 178.026C281.326 177.498 281.55 176.361 281.55 174.614ZM281.55 128.676H287.098V135.378H281.55V128.676Z" fill="white"/>
<path d="M315.749 159.139V157.067C310.18 157.595 306.034 158.367 303.31 159.383C300.627 160.398 299.286 161.962 299.286 164.074C299.286 165.658 299.855 166.917 300.993 167.851C302.131 168.785 303.676 169.253 305.627 169.253C308.554 169.253 310.973 168.461 312.883 166.876C314.794 165.292 315.749 162.713 315.749 159.139ZM304.408 173.639C301.197 173.639 298.514 172.807 296.359 171.141C294.205 169.435 293.128 167.12 293.128 164.196C293.128 162.327 293.616 160.723 294.591 159.383C295.607 158.042 297.152 156.945 299.225 156.092C301.339 155.199 303.635 154.508 306.115 154.021C308.595 153.534 311.664 153.087 315.322 152.681V151.889C315.322 146.568 312.842 143.907 307.883 143.907C305.607 143.907 303.818 144.476 302.518 145.613C301.217 146.75 300.506 148.355 300.384 150.426H294.652C294.896 147.055 296.298 144.374 298.859 142.384C301.461 140.394 304.448 139.399 307.822 139.399C312.334 139.399 315.647 140.495 317.761 142.689C319.875 144.882 320.911 148.294 320.871 152.924L320.81 160.479C320.769 165.8 321.053 169.923 321.663 172.847H316.054C315.81 171.263 315.667 169.76 315.627 168.339C313.554 171.872 309.814 173.639 304.408 173.639Z" fill="white"/>
<path d="M346.25 140.069H352.043L340.336 174.249C339.442 176.807 338.608 178.676 337.836 179.854C337.104 181.072 336.048 181.986 334.666 182.595C333.283 183.205 331.373 183.509 328.934 183.509H326.068V178.879H328.324C330.397 178.879 331.881 178.574 332.775 177.965C333.71 177.356 334.523 175.873 335.214 173.517L335.458 172.847L323.629 140.069H329.788L338.141 165.353L346.25 140.069Z" fill="white"/>
</svg>
