<svg width="438" height="306" viewBox="0 0 438 306" fill="none" xmlns="http://www.w3.org/2000/svg">
<rect width="437.143" height="306" fill="#12A8FD"/>
<path fill-rule="evenodd" clip-rule="evenodd" d="M144.795 137.646L145.046 138.272L148.403 140.423L146.167 142.657L146.292 143.66C146.412 144.617 146.461 145.554 146.461 146.448C146.461 158.504 143.198 167.537 136.972 173.493L136.971 173.494C128.424 181.701 116.794 181.476 116.278 181.466L116.261 181.465H116.236C107.187 181.465 100.08 178.715 95.0328 173.407L95.032 173.406C90.2257 168.362 87.9516 161.729 86.8921 156.246C85.8849 151.034 85.9973 146.987 86.0098 146.538C86.0104 146.516 86.0107 146.503 86.0107 146.498V138.476H103.87V122H120.599C125.713 122 131.893 123.553 135.951 126.391L135.951 126.392C139.964 129.193 143.03 133.079 144.793 137.639L144.795 137.646ZM141.922 149.236V148.006H141.846V146.473C141.846 141.002 139.334 135.243 134.768 131.55L134.766 131.548C130.106 127.79 123.678 126.535 116.844 126.535H108.358V146.492L108.307 151.308V151.314C108.307 153.434 109.075 155.433 110.55 156.879C112.016 158.341 114.01 159.11 116.134 159.11H116.16C120.341 159.11 123.723 155.681 123.959 151.433L123.959 151.429L123.96 151.424C124.074 149.05 123.412 146.97 121.8 145.452C119.952 143.701 117.392 143.179 115.615 143.049V138.426C117.981 138.448 121.981 138.901 124.861 141.416C127.231 143.497 128.551 146.76 128.551 151.314C128.551 154.685 127.238 157.814 124.815 160.166C122.415 162.495 119.235 163.738 115.863 163.646C109.275 163.462 103.87 157.822 103.87 151.01V143.037H90.5496V146.524C90.5496 157.838 93.4896 166.412 99.5421 171.731L99.5435 171.733C105.012 176.524 111.374 177.184 114.485 177.184C115.451 177.184 116.136 177.115 116.421 177.079C117.329 177.037 123.15 176.68 129.064 173.377C134.971 170.077 141.922 163.184 141.922 149.236Z" fill="white"/>
<path d="M173.264 146.98C171.435 149.051 170.52 152.118 170.52 156.18C170.52 160.241 171.435 163.308 173.264 165.379C175.134 167.451 177.41 168.487 180.093 168.487C182.979 168.487 185.255 167.41 186.922 165.258C188.629 163.064 189.483 160.038 189.483 156.18C189.483 152.321 188.629 149.315 186.922 147.162C185.255 144.969 182.979 143.872 180.093 143.872C177.41 143.872 175.134 144.908 173.264 146.98ZM165.215 128.275H170.764V144.847C172.959 141.029 176.536 139.12 181.495 139.12C185.438 139.12 188.751 140.664 191.434 143.751C194.157 146.837 195.519 150.98 195.519 156.18C195.519 161.419 194.157 165.582 191.434 168.669C188.751 171.716 185.438 173.239 181.495 173.239C176.536 173.239 172.959 171.33 170.764 167.512V172.447H165.215V128.275Z" fill="white"/>
<path d="M206.563 128.275V172.447H201.014V128.275H206.563Z" fill="white"/>
<path d="M234.026 172.447V167.756C231.791 171.411 228.356 173.239 223.722 173.239C216.73 173.239 213.235 169.035 213.235 160.627V139.668H218.783V158.982C218.783 161.988 219.23 164.323 220.125 165.989C221.059 167.613 222.909 168.426 225.673 168.426C228.356 168.426 230.409 167.512 231.831 165.684C233.295 163.856 234.026 161.196 234.026 157.703V139.668H239.575V172.447H234.026Z" fill="white"/>
<path d="M276.518 157.885H251.275C251.357 161.216 252.393 163.795 254.385 165.623C256.418 167.451 258.755 168.365 261.397 168.365C265.787 168.365 268.775 166.557 270.36 162.942H276.092C275.319 165.907 273.632 168.365 271.031 170.314C268.429 172.264 265.218 173.239 261.397 173.239C256.357 173.239 252.414 171.634 249.568 168.426C246.723 165.217 245.3 161.115 245.3 156.119C245.3 151.001 246.804 146.898 249.812 143.811C252.82 140.684 256.621 139.12 261.214 139.12C266.133 139.12 269.994 140.928 272.799 144.543C275.604 148.117 276.844 152.565 276.518 157.885ZM261.214 143.872C258.572 143.872 256.316 144.644 254.446 146.188C252.617 147.731 251.58 150.046 251.336 153.133H270.665C270.584 150.656 269.689 148.503 267.982 146.675C266.275 144.807 264.019 143.872 261.214 143.872Z" fill="white"/>
<path d="M282.164 174.214V139.668H287.712V174.092C287.712 177.585 287.184 179.961 286.127 181.22C285.111 182.479 283.058 183.109 279.969 183.109H277.164V178.479H278.749C280.172 178.479 281.087 178.194 281.493 177.626C281.94 177.098 282.164 175.96 282.164 174.214ZM282.164 128.275H287.712V134.977H282.164V128.275Z" fill="white"/>
<path d="M316.363 158.738V156.667C310.794 157.195 306.648 157.967 303.925 158.982C301.242 159.998 299.9 161.561 299.9 163.673C299.9 165.258 300.469 166.517 301.608 167.451C302.746 168.385 304.29 168.852 306.241 168.852C309.168 168.852 311.587 168.06 313.497 166.476C315.408 164.892 316.363 162.313 316.363 158.738ZM305.022 173.239C301.811 173.239 299.128 172.406 296.974 170.741C294.819 169.035 293.742 166.72 293.742 163.795C293.742 161.927 294.23 160.322 295.205 158.982C296.222 157.642 297.766 156.545 299.839 155.692C301.953 154.799 304.25 154.108 306.729 153.621C309.209 153.133 312.278 152.686 315.936 152.28V151.488C315.936 146.167 313.457 143.507 308.497 143.507C306.221 143.507 304.433 144.075 303.132 145.213C301.831 146.35 301.12 147.954 300.998 150.026H295.266C295.51 146.655 296.913 143.974 299.473 141.984C302.075 139.993 305.063 138.998 308.437 138.998C312.949 138.998 316.261 140.095 318.375 142.288C320.489 144.482 321.525 147.894 321.485 152.524L321.424 160.079C321.383 165.4 321.668 169.522 322.277 172.447H316.668C316.424 170.863 316.282 169.36 316.241 167.938C314.168 171.472 310.428 173.239 305.022 173.239Z" fill="white"/>
<path d="M346.865 139.668H352.657L340.95 173.848C340.056 176.407 339.223 178.275 338.45 179.453C337.719 180.672 336.662 181.586 335.28 182.195C333.898 182.804 331.987 183.109 329.548 183.109H326.683V178.479H328.939C331.012 178.479 332.495 178.174 333.39 177.565C334.325 176.955 335.138 175.473 335.829 173.117L336.072 172.447L324.244 139.668H330.402L338.755 164.953L346.865 139.668Z" fill="white"/>
</svg>
