<svg width="438" height="306" viewBox="0 0 438 306" fill="none" xmlns="http://www.w3.org/2000/svg">
<rect x="0.285767" width="437.143" height="306" fill="#CAEEFF"/>
<path fill-rule="evenodd" clip-rule="evenodd" d="M144.324 138.046L144.575 138.672L147.932 140.823L145.696 143.057L145.821 144.06C145.941 145.017 145.989 145.954 145.989 146.848C145.989 158.904 142.727 167.937 136.501 173.893L136.499 173.895C127.952 182.101 116.323 181.876 115.806 181.866L115.79 181.866H115.764C106.716 181.866 99.6086 179.115 94.5614 173.808L94.5605 173.807C89.7542 168.762 87.4802 162.129 86.4207 156.646C85.4135 151.434 85.5259 147.387 85.5383 146.938C85.5389 146.917 85.5393 146.903 85.5393 146.899V138.877H103.398V122.4H120.127C125.242 122.4 131.421 123.953 135.479 126.791L135.48 126.792C139.493 129.594 142.559 133.479 144.321 138.039L144.324 138.046ZM141.45 149.636V148.406H141.374V146.873C141.374 141.402 138.863 135.644 134.296 131.95L134.295 131.949C129.635 128.191 123.206 126.936 116.373 126.936H107.886V146.892L107.836 151.708V151.715C107.836 153.834 108.604 155.834 110.078 157.279C111.545 158.742 113.539 159.511 115.663 159.511H115.688C119.87 159.511 123.252 156.082 123.488 151.834L123.488 151.829L123.488 151.825C123.603 149.45 122.941 147.37 121.328 145.852C119.48 144.101 116.92 143.58 115.144 143.449V138.826C117.51 138.848 121.51 139.302 124.39 141.817C126.759 143.898 128.079 147.16 128.079 151.715C128.079 155.086 126.766 158.214 124.343 160.566C121.943 162.895 118.764 164.139 115.392 164.046C108.804 163.863 103.398 158.223 103.398 151.411V143.438H90.0782V146.924C90.0782 158.238 93.0181 166.813 99.0707 172.132L99.0721 172.133C104.541 176.925 110.903 177.584 114.014 177.584C114.979 177.584 115.664 177.516 115.95 177.479C116.857 177.437 122.679 177.08 128.592 173.777C134.499 170.477 141.45 163.585 141.45 149.636Z" fill="#24073A"/>
<path d="M172.792 147.38C170.963 149.452 170.049 152.518 170.049 156.58C170.049 160.642 170.963 163.708 172.792 165.78C174.662 167.851 176.938 168.887 179.621 168.887C182.507 168.887 184.784 167.811 186.45 165.658C188.158 163.465 189.011 160.439 189.011 156.58C189.011 152.721 188.158 149.716 186.45 147.563C184.784 145.369 182.507 144.273 179.621 144.273C176.938 144.273 174.662 145.309 172.792 147.38ZM164.744 128.676H170.292V145.248C172.487 141.43 176.065 139.521 181.024 139.521C184.967 139.521 188.279 141.064 190.962 144.151C193.686 147.238 195.048 151.381 195.048 156.58C195.048 161.82 193.686 165.983 190.962 169.07C188.279 172.116 184.967 173.639 181.024 173.639C176.065 173.639 172.487 171.73 170.292 167.912V172.847H164.744V128.676Z" fill="#24073A"/>
<path d="M206.091 128.676V172.847H200.543V128.676H206.091Z" fill="#24073A"/>
<path d="M233.555 172.847V168.156C231.319 171.811 227.884 173.639 223.251 173.639C216.259 173.639 212.763 169.435 212.763 161.028V140.069H218.312V159.383C218.312 162.388 218.759 164.724 219.653 166.389C220.588 168.014 222.438 168.826 225.202 168.826C227.884 168.826 229.937 167.912 231.36 166.084C232.823 164.257 233.555 161.596 233.555 158.103V140.069H239.104V172.847H233.555Z" fill="#24073A"/>
<path d="M276.047 158.286H250.804C250.885 161.616 251.922 164.196 253.914 166.023C255.946 167.851 258.283 168.765 260.926 168.765C265.316 168.765 268.303 166.958 269.889 163.343H275.62C274.848 166.308 273.161 168.765 270.559 170.715C267.958 172.664 264.747 173.639 260.926 173.639C255.885 173.639 251.942 172.035 249.097 168.826C246.251 165.617 244.829 161.515 244.829 156.519C244.829 151.401 246.333 147.299 249.341 144.212C252.349 141.084 256.149 139.521 260.743 139.521C265.661 139.521 269.523 141.328 272.328 144.943C275.132 148.517 276.372 152.965 276.047 158.286ZM260.743 144.273C258.1 144.273 255.844 145.045 253.975 146.588C252.145 148.131 251.109 150.447 250.865 153.534H270.193C270.112 151.056 269.218 148.903 267.511 147.075C265.803 145.207 263.547 144.273 260.743 144.273Z" fill="#24073A"/>
<path d="M281.692 174.614V140.069H287.241V174.492C287.241 177.985 286.713 180.361 285.656 181.621C284.64 182.88 282.587 183.509 279.497 183.509H276.693V178.879H278.278C279.701 178.879 280.615 178.595 281.022 178.026C281.469 177.498 281.692 176.361 281.692 174.614ZM281.692 128.676H287.241V135.378H281.692V128.676Z" fill="#24073A"/>
<path d="M315.892 159.139V157.067C310.323 157.595 306.177 158.367 303.453 159.383C300.77 160.398 299.429 161.962 299.429 164.074C299.429 165.658 299.998 166.917 301.136 167.851C302.274 168.785 303.819 169.253 305.77 169.253C308.697 169.253 311.115 168.461 313.026 166.876C314.936 165.292 315.892 162.713 315.892 159.139ZM304.551 173.639C301.339 173.639 298.657 172.807 296.502 171.141C294.348 169.435 293.271 167.12 293.271 164.196C293.271 162.327 293.758 160.723 294.734 159.383C295.75 158.042 297.295 156.945 299.368 156.092C301.482 155.199 303.778 154.508 306.258 154.021C308.737 153.534 311.806 153.087 315.465 152.681V151.889C315.465 146.568 312.985 143.907 308.026 143.907C305.75 143.907 303.961 144.476 302.66 145.613C301.36 146.75 300.648 148.355 300.526 150.426H294.795C295.039 147.055 296.441 144.374 299.002 142.384C301.604 140.394 304.591 139.399 307.965 139.399C312.477 139.399 315.79 140.495 317.904 142.689C320.017 144.882 321.054 148.294 321.013 152.924L320.952 160.479C320.912 165.8 321.196 169.923 321.806 172.847H316.196C315.953 171.263 315.81 169.76 315.77 168.339C313.697 171.872 309.957 173.639 304.551 173.639Z" fill="#24073A"/>
<path d="M346.393 140.069H352.186L340.479 174.249C339.585 176.807 338.751 178.676 337.979 179.854C337.247 181.072 336.19 181.986 334.808 182.595C333.426 183.205 331.516 183.509 329.077 183.509H326.211V178.879H328.467C330.54 178.879 332.024 178.574 332.918 177.965C333.853 177.356 334.666 175.873 335.357 173.517L335.601 172.847L323.772 140.069H329.93L338.284 165.353L346.393 140.069Z" fill="#24073A"/>
</svg>
