<?xml version="1.0" encoding="utf-8"?>
<!-- Generator: Adobe Illustrator 26.0.0, SVG Export Plug-In . SVG Version: 6.00 Build 0)  -->
<svg version="1.1" id="Layer_1" xmlns="http://www.w3.org/2000/svg" xmlns:xlink="http://www.w3.org/1999/xlink" x="0px" y="0px"
	 viewBox="0 0 1080 1080" style="enable-background:new 0 0 1080 1080;" xml:space="preserve">
<style type="text/css">
	.st0{fill:#333333;}
	.st1{fill:#266CBE;}
	.st2{fill:#F8F8F8;}
	.st3{fill:#FFFFFF;}
</style>
<rect class="st0" width="1080" height="1080"/>
<g>
	<path class="st3" d="M881,368.6l-1.2-3.1c-22.2-57.3-60.7-106.2-111.3-141.5c-51.7-36.1-128.9-55.2-192.2-55.2H361.4v197.5h-214
		l0,111c-0.1,2-8.5,206,112,332.5c63.9,67.1,153,101.1,264.7,101.1l0.4,0c1.5,0.1,149.3,4.9,258.2-99.5
		c78.3-75.2,118.1-187.7,118.1-334.6c0-11.3-0.7-23.1-2.1-35.1l-0.6-4.9l34.7-34.7L881,368.6z M816.8,509.9
		c0,160.8-79.7,239.1-146.5,276.4c-69.6,38.8-138.2,42.1-145.5,42.4c-2.3,0.3-10.1,1.1-21.7,1.1c-35.7,0-107.6-7.6-169.2-61.7
		c-68.1-59.7-102.6-157.7-102.6-291.1v-26.7h130.1V531c0,89.2,70.9,163.8,158.1,166.2c44.3,1.3,86.2-15.1,118-46
		c31.8-30.9,49.2-72.3,49.2-116.6c0-57.4-16.6-101.1-49.3-129.7c-45.7-40.1-111.4-40.5-135-39.2v84.2c18.3-0.3,55,2.7,78.5,25.2
		c15.5,14.7,22.6,35,21.2,60.2c-2.5,43.7-37,78.1-78.6,78.2c-0.1,0-0.2,0-0.2,0c-21.8,0-41.8-8-56.4-22.5
		c-14.4-14.4-22.4-34.4-22.4-56.2l0.7-57.7V252.7h87c80.5,0,153.4,14.9,205.3,56.8c51.1,41.2,79.2,105.9,79.2,167.4V509.9z"/>
</g>
</svg>
