<svg width="438" height="306" viewBox="0 0 438 306" fill="none" xmlns="http://www.w3.org/2000/svg">
<rect width="437.143" height="306" fill="white"/>
<path fill-rule="evenodd" clip-rule="evenodd" d="M144.038 138.046L144.289 138.672L147.646 140.823L145.41 143.057L145.535 144.06C145.655 145.017 145.703 145.954 145.703 146.848C145.703 158.904 142.441 167.937 136.215 173.893L136.213 173.895C127.666 182.101 116.037 181.876 115.521 181.866L115.504 181.866H115.479C106.43 181.866 99.3229 179.115 94.2757 173.808L94.2749 173.807C89.4685 168.762 87.1945 162.129 86.135 156.646C85.1278 151.434 85.2402 147.387 85.2527 146.938C85.2533 146.917 85.2536 146.903 85.2536 146.899V138.877H103.113V122.4H119.842C124.956 122.4 131.136 123.953 135.194 126.791L135.194 126.792C139.207 129.594 142.273 133.479 144.036 138.039L144.038 138.046ZM141.164 149.636V148.406H141.088V146.873C141.088 141.402 138.577 135.644 134.011 131.95L134.009 131.949C129.349 128.191 122.921 126.936 116.087 126.936H107.601V146.892L107.55 151.708V151.715C107.55 153.834 108.318 155.834 109.792 157.279C111.259 158.742 113.253 159.511 115.377 159.511H115.402C119.584 159.511 122.966 156.082 123.202 151.834L123.202 151.829L123.203 151.825C123.317 149.45 122.655 147.37 121.043 145.852C119.195 144.101 116.635 143.58 114.858 143.449V138.826C117.224 138.848 121.224 139.302 124.104 141.817C126.474 143.898 127.794 147.16 127.794 151.715C127.794 155.086 126.481 158.214 124.057 160.566C121.657 162.895 118.478 164.139 115.106 164.046C108.518 163.863 103.113 158.223 103.113 151.411V143.438H89.7925V146.924C89.7925 158.238 92.7324 166.813 98.785 172.132L98.7864 172.133C104.255 176.925 110.617 177.584 113.728 177.584C114.693 177.584 115.379 177.516 115.664 177.479C116.572 177.437 122.393 177.08 128.307 173.777C134.213 170.477 141.164 163.585 141.164 149.636Z" fill="black"/>
<path d="M172.507 147.38C170.677 149.452 169.763 152.518 169.763 156.58C169.763 160.642 170.677 163.708 172.507 165.78C174.376 167.851 176.653 168.887 179.336 168.887C182.222 168.887 184.498 167.811 186.165 165.658C187.872 163.465 188.725 160.439 188.725 156.58C188.725 152.721 187.872 149.716 186.165 147.563C184.498 145.369 182.222 144.273 179.336 144.273C176.653 144.273 174.376 145.309 172.507 147.38ZM164.458 128.676H170.007V145.248C172.202 141.43 175.779 139.521 180.738 139.521C184.681 139.521 187.994 141.064 190.677 144.151C193.4 147.238 194.762 151.381 194.762 156.58C194.762 161.82 193.4 165.983 190.677 169.07C187.994 172.116 184.681 173.639 180.738 173.639C175.779 173.639 172.202 171.73 170.007 167.912V172.847H164.458V128.676Z" fill="black"/>
<path d="M205.805 128.676V172.847H200.257V128.676H205.805Z" fill="black"/>
<path d="M233.269 172.847V168.156C231.034 171.811 227.599 173.639 222.965 173.639C215.973 173.639 212.477 169.435 212.477 161.028V140.069H218.026V159.383C218.026 162.388 218.473 164.724 219.367 166.389C220.302 168.014 222.152 168.826 224.916 168.826C227.599 168.826 229.652 167.912 231.074 166.084C232.538 164.257 233.269 161.596 233.269 158.103V140.069H238.818V172.847H233.269Z" fill="black"/>
<path d="M275.761 158.286H250.518C250.6 161.616 251.636 164.196 253.628 166.023C255.66 167.851 257.998 168.765 260.64 168.765C265.03 168.765 268.018 166.958 269.603 163.343H275.334C274.562 166.308 272.875 168.765 270.274 170.715C267.672 172.664 264.461 173.639 260.64 173.639C255.599 173.639 251.656 172.035 248.811 168.826C245.966 165.617 244.543 161.515 244.543 156.519C244.543 151.401 246.047 147.299 249.055 144.212C252.063 141.084 255.864 139.521 260.457 139.521C265.375 139.521 269.237 141.328 272.042 144.943C274.847 148.517 276.086 152.965 275.761 158.286ZM260.457 144.273C257.815 144.273 255.559 145.045 253.689 146.588C251.86 148.131 250.823 150.447 250.579 153.534H269.908C269.826 151.056 268.932 148.903 267.225 147.075C265.518 145.207 263.262 144.273 260.457 144.273Z" fill="black"/>
<path d="M281.407 174.614V140.069H286.955V174.492C286.955 177.985 286.427 180.361 285.37 181.621C284.354 182.88 282.301 183.509 279.212 183.509H276.407V178.879H277.992C279.415 178.879 280.33 178.595 280.736 178.026C281.183 177.498 281.407 176.361 281.407 174.614ZM281.407 128.676H286.955V135.378H281.407V128.676Z" fill="black"/>
<path d="M315.606 159.139V157.067C310.037 157.595 305.891 158.367 303.167 159.383C300.485 160.398 299.143 161.962 299.143 164.074C299.143 165.658 299.712 166.917 300.85 167.851C301.989 168.785 303.533 169.253 305.484 169.253C308.411 169.253 310.83 168.461 312.74 166.876C314.651 165.292 315.606 162.713 315.606 159.139ZM304.265 173.639C301.054 173.639 298.371 172.807 296.216 171.141C294.062 169.435 292.985 167.12 292.985 164.196C292.985 162.327 293.473 160.723 294.448 159.383C295.464 158.042 297.009 156.945 299.082 156.092C301.196 155.199 303.493 154.508 305.972 154.021C308.452 153.534 311.521 153.087 315.179 152.681V151.889C315.179 146.568 312.7 143.907 307.74 143.907C305.464 143.907 303.675 144.476 302.375 145.613C301.074 146.75 300.363 148.355 300.241 150.426H294.509C294.753 147.055 296.155 144.374 298.716 142.384C301.318 140.394 304.306 139.399 307.679 139.399C312.191 139.399 315.504 140.495 317.618 142.689C319.732 144.882 320.768 148.294 320.728 152.924L320.667 160.479C320.626 165.8 320.911 169.923 321.52 172.847H315.911C315.667 171.263 315.525 169.76 315.484 168.339C313.411 171.872 309.671 173.639 304.265 173.639Z" fill="black"/>
<path d="M346.108 140.069H351.9L340.193 174.249C339.299 176.807 338.466 178.676 337.693 179.854C336.962 181.072 335.905 181.986 334.523 182.595C333.141 183.205 331.23 183.509 328.791 183.509H325.925V178.879H328.181C330.255 178.879 331.738 178.574 332.633 177.965C333.567 177.356 334.38 175.873 335.071 173.517L335.315 172.847L323.487 140.069H329.645L337.998 165.353L346.108 140.069Z" fill="black"/>
</svg>
