<?xml version="1.0" encoding="utf-8"?>
<!-- Generator: Adobe Illustrator 26.0.0, SVG Export Plug-In . SVG Version: 6.00 Build 0)  -->
<svg version="1.1" id="Layer_1" xmlns="http://www.w3.org/2000/svg" xmlns:xlink="http://www.w3.org/1999/xlink" x="0px" y="0px"
	 viewBox="0 0 1200 255" style="enable-background:new 0 0 1200 255;" xml:space="preserve">
<style type="text/css">
	.st0{fill:#333333;}
	.st1{fill:#F8F8F8;}
	.st2{fill:#266CBE;}
</style>
<g>
	<g>
		<path class="st1" d="M248.1,71.1l-0.4-1c-7.3-18.9-20-35-36.6-46.6c-17-11.9-42.4-18.2-63.3-18.2H77v65H6.6l0,36.5
			c0,0.7-2.8,67.8,36.9,109.5c21,22.1,50.4,33.3,87.1,33.3l0.1,0c0.5,0,49.2,1.6,85-32.8c25.8-24.7,38.9-61.8,38.9-110.2
			c0-3.7-0.2-7.6-0.7-11.6l-0.2-1.6l11.4-11.4L248.1,71.1z M227,117.6c0,53-26.2,78.7-48.2,91c-22.9,12.8-45.5,13.9-47.9,14
			c-0.7,0.1-3.3,0.4-7.2,0.4c-11.7,0-35.4-2.5-55.7-20.3c-22.4-19.7-33.8-51.9-33.8-95.8V98H77v26.6c0,29.4,23.3,53.9,52,54.7
			c14.6,0.4,28.4-5,38.8-15.1c10.5-10.2,16.2-23.8,16.2-38.4c0-18.9-5.5-33.3-16.2-42.7c-15.1-13.2-36.7-13.3-44.5-12.9v27.7
			c6-0.1,18.1,0.9,25.9,8.3c5.1,4.8,7.4,11.5,7,19.8c-0.8,14.4-12.2,25.7-25.9,25.7c0,0-0.1,0-0.1,0c-7.2,0-13.8-2.6-18.6-7.4
			c-4.8-4.7-7.4-11.3-7.4-18.5l0.2-19V32.9h28.6c26.5,0,50.5,4.9,67.6,18.7c16.8,13.6,26.1,34.9,26.1,55.1V117.6z"/>
	</g>
	<g>
		<path class="st1" d="M392.9,193.7c6.2-1.3,11.7-3.4,16.6-6.5c4.8-3,8.7-7,11.6-11.9c2.9-4.9,4.4-11.1,4.4-18.6
			c0-4.4-0.7-8.4-2.2-12.2c-1.5-3.8-3.5-7.1-6.1-10c-2.6-2.9-5.7-5.3-9.3-7.1c-3.7-1.9-7.6-3.1-11.8-3.6v-0.4
			c7-2.2,12.8-5.8,17.1-10.8c4.4-5,6.5-11.4,6.5-19.1c0-6.2-1.2-11.4-3.6-15.8c-2.4-4.4-5.6-7.9-9.5-10.7c-3.9-2.8-8.4-4.7-13.4-6
			c-5-1.2-10.1-1.8-15.2-1.8h-53.1v136.3h49.1C380.3,195.6,386.7,195,392.9,193.7z M349.1,80.2h20c9.2,0,15.9,1.4,20.1,4.3
			c4.2,2.9,6.3,7.3,6.3,13.2c0,5.1-2,9.3-6.1,12.4c-4,3.1-10.1,4.7-18.2,4.7h-22.1V80.2z M349.1,174.8v-39.3h23.3
			c9.9,0,17.2,1.4,21.8,4.2c4.7,2.8,7,7.8,7,15c0,4.5-1,8.1-2.9,10.7c-1.9,2.6-4.4,4.7-7.3,6.1c-3,1.4-6.2,2.3-9.7,2.7
			c-3.5,0.4-6.8,0.6-9.9,0.6H349.1z"/>
	</g>
	<g>
		<polygon class="st1" points="541.4,173.7 483.5,173.7 483.5,59.4 459.2,59.4 459.2,195.6 541.4,195.6 		"/>
	</g>
	<g>
		<path class="st1" d="M583.8,182.9c4.9,4.6,10.7,8.2,17.4,10.7c6.7,2.5,13.9,3.7,21.7,3.7c7.8,0,15.1-1.3,21.7-3.7
			c6.7-2.5,12.4-6.1,17.3-10.7c4.9-4.6,8.7-10.2,11.5-16.9c2.8-6.6,4.2-14,4.2-22.2V57.6h-24.2v85.5c0,3.3-0.5,6.8-1.5,10.5
			c-1,3.7-2.7,7-5.1,10.1c-2.4,3.1-5.5,5.6-9.4,7.6c-3.9,2-8.8,3-14.5,3c-5.8,0-10.6-1-14.5-3c-3.9-2-7.1-4.5-9.4-7.6
			c-2.4-3.1-4.1-6.5-5.1-10.1c-1-3.7-1.5-7.2-1.5-10.5V57.6h-24.2v86.2c0,8.2,1.4,15.6,4.1,22.2C575,172.7,578.9,178.3,583.8,182.9z
			"/>
	</g>
	<g>
		<polygon class="st1" points="811,173.7 741.5,173.7 741.5,136.7 804.1,136.7 804.1,114.8 741.5,114.8 741.5,81.3 807.6,81.3 
			807.6,59.4 717.3,59.4 717.3,195.6 811,195.6 		"/>
	</g>
	<g>
		<path class="st1" d="M843.8,189.9c6.9,5,15.7,7.5,26.5,7.5c6.8,0,12.8-1.1,17.9-3.4s9.4-5.3,12.8-9c3.4-3.8,6-8.2,7.7-13.2
			c1.7-5,2.6-10.2,2.6-15.6V57.6h-24.2v91.4c0,8.2-1.3,14.7-3.8,19.3c-2.5,4.7-7.2,7-14.2,7c-4.2,0-7.8-1.3-10.7-4
			c-2.9-2.7-4.7-6.3-5.5-10.8l-22.7,5.4C832.5,176.9,837,184.9,843.8,189.9z"/>
	</g>
	<g>
		<path class="st1" d="M974.6,164.4h59.1l12.7,31.2h27.7l-58.7-136.3h-21l-59.3,136.3h27.1L974.6,164.4z M1004.3,88.2l21,55.4h-42.3
			L1004.3,88.2z"/>
	</g>
	<g>
		<polygon class="st1" points="1118,195.6 1142.3,195.6 1142.3,137.3 1193.5,59.4 1164.6,59.4 1130.7,113.6 1097.2,59.4 
			1066.8,59.4 1118,137.3 		"/>
	</g>
</g>
</svg>
