<?xml version="1.0" encoding="utf-8"?>
<!-- Generator: Adobe Illustrator 26.0.0, SVG Export Plug-In . SVG Version: 6.00 Build 0)  -->
<svg version="1.1" id="Layer_1" xmlns="http://www.w3.org/2000/svg" xmlns:xlink="http://www.w3.org/1999/xlink" x="0px" y="0px"
	 viewBox="0 0 598 709" style="enable-background:new 0 0 598 709;" xml:space="preserve">
<style type="text/css">
	.st0{fill:#333333;}
	.st1{fill:#F8F8F8;}
	.st2{fill:#266CBE;}
</style>
<g>
	<path class="st0" d="M552.1,155.5l-0.9-2.3c-16.3-42.1-44.6-78-81.7-103.9c-38-26.5-94.6-40.5-141.1-40.5H170.5v145H13.4l0,81.5
		c-0.1,1.5-6.3,151.2,82.2,244.1c46.9,49.3,112.3,74.3,194.3,74.3l0.3,0c1.1,0.1,109.7,3.6,189.6-73.1
		c57.5-55.2,86.7-137.9,86.7-245.7c0-8.3-0.5-17-1.5-25.8l-0.4-3.6l25.5-25.5L552.1,155.5z M504.9,259.2
		c0,118.1-58.5,175.5-107.6,202.9c-51.1,28.5-101.5,30.9-106.8,31.1c-1.7,0.2-7.4,0.8-16,0.8c-26.2,0-79-5.6-124.3-45.3
		C100.3,404.9,75,333,75,235v-19.6h95.6v59.2c0,65.5,52.1,120.3,116.1,122c32.6,1,63.3-11.1,86.6-33.8
		c23.3-22.7,36.2-53.1,36.2-85.6c0-42.2-12.2-74.2-36.2-95.3c-33.6-29.4-81.8-29.8-99.2-28.8v61.8c13.5-0.2,40.4,2,57.7,18.5
		c11.3,10.8,16.6,25.7,15.5,44.2c-1.8,32.1-27.1,57.3-57.7,57.4c-0.1,0-0.1,0-0.2,0c-16,0-30.7-5.9-41.4-16.5
		c-10.6-10.6-16.4-25.2-16.4-41.3l0.5-42.4V70.4H296c59.1,0,112.6,10.9,150.8,41.7c37.5,30.3,58.2,77.8,58.2,122.9V259.2z"/>
	<path class="st0" d="M53.1,696.6c4.1-0.9,7.8-2.3,11-4.3c3.2-2,5.8-4.6,7.7-7.9c2-3.3,2.9-7.4,2.9-12.3c0-2.9-0.5-5.6-1.5-8.1
		c-1-2.5-2.3-4.7-4-6.7c-1.7-1.9-3.8-3.5-6.2-4.7c-2.4-1.2-5.1-2-7.9-2.4v-0.3c4.7-1.4,8.5-3.8,11.4-7.2c2.9-3.3,4.3-7.5,4.3-12.7
		c0-4.1-0.8-7.6-2.4-10.5c-1.6-2.9-3.7-5.3-6.3-7.1c-2.6-1.8-5.6-3.2-8.9-4c-3.3-0.8-6.7-1.2-10.1-1.2H7.9v90.6h32.6
		C44.8,697.9,49,697.4,53.1,696.6z M24,621.1h13.3c6.1,0,10.6,1,13.4,2.9c2.8,1.9,4.2,4.8,4.2,8.8c0,3.4-1.3,6.2-4,8.3
		c-2.7,2.1-6.7,3.1-12.1,3.1H24V621.1z M24,684v-26.1h15.5c6.6,0,11.4,0.9,14.5,2.8c3.1,1.9,4.7,5.2,4.7,10c0,3-0.6,5.4-1.9,7.1
		c-1.3,1.8-2.9,3.1-4.9,4c-2,0.9-4.1,1.5-6.5,1.8c-2.3,0.3-4.5,0.4-6.6,0.4H24z"/>
	<polygon class="st0" points="151.9,683.3 113.4,683.3 113.4,607.3 97.2,607.3 97.2,697.9 151.9,697.9 	"/>
	<path class="st0" d="M180.1,690.6c3.3,3.1,7.1,5.4,11.6,7.1c4.4,1.7,9.3,2.5,14.5,2.5c5.2,0,10-0.8,14.5-2.5
		c4.4-1.7,8.3-4,11.5-7.1c3.2-3.1,5.8-6.8,7.7-11.2c1.9-4.4,2.8-9.3,2.8-14.8v-57.3h-16.1v56.8c0,2.2-0.3,4.5-1,7
		c-0.7,2.4-1.8,4.7-3.4,6.7c-1.6,2-3.7,3.7-6.3,5.1c-2.6,1.3-5.8,2-9.7,2c-3.8,0-7.1-0.7-9.7-2c-2.6-1.3-4.7-3-6.3-5.1
		c-1.6-2.1-2.7-4.3-3.4-6.7c-0.7-2.4-1-4.8-1-7v-56.8h-16.1v57.3c0,5.5,0.9,10.4,2.7,14.8C174.2,683.8,176.8,687.5,180.1,690.6z"/>
	<polygon class="st0" points="331.1,683.3 284.9,683.3 284.9,658.7 326.5,658.7 326.5,644.1 284.9,644.1 284.9,621.9 328.8,621.9 
		328.8,607.3 268.8,607.3 268.8,697.9 331.1,697.9 	"/>
	<path class="st0" d="M352.9,695.2c4.6,3.3,10.4,5,17.6,5c4.5,0,8.5-0.8,11.9-2.2s6.2-3.5,8.5-6c2.3-2.5,4-5.4,5.1-8.8
		c1.2-3.3,1.7-6.8,1.7-10.4v-65.5h-16.1v60.8c0,5.5-0.8,9.7-2.5,12.9c-1.7,3.1-4.8,4.7-9.4,4.7c-2.8,0-5.2-0.9-7.1-2.7
		c-1.9-1.8-3.1-4.2-3.6-7.2l-15.1,3.6C345.4,686.6,348.4,691.9,352.9,695.2z"/>
	<path class="st0" d="M439.9,677.1h39.3l8.4,20.7H506l-39-90.6h-13.9l-39.4,90.6h18L439.9,677.1z M459.6,626.5l13.9,36.9h-28.2
		L459.6,626.5z"/>
	<polygon class="st0" points="535.2,697.9 551.3,697.9 551.3,659.1 585.4,607.3 566.2,607.3 543.7,643.4 521.4,607.3 501.2,607.3 
		535.2,659.1 	"/>
</g>
</svg>
