<?xml version="1.0" encoding="utf-8"?>
<!-- Generator: Adobe Illustrator 26.0.0, SVG Export Plug-In . SVG Version: 6.00 Build 0)  -->
<svg version="1.1" id="Layer_1" xmlns="http://www.w3.org/2000/svg" xmlns:xlink="http://www.w3.org/1999/xlink" x="0px" y="0px"
	 viewBox="0 0 598 570" style="enable-background:new 0 0 598 570;" xml:space="preserve">
<style type="text/css">
	.st0{fill:#333333;}
	.st1{fill:#F8F8F8;}
	.st2{fill:#266CBE;}
</style>
<g>
	<path class="st2" d="M549.4,159.1l-0.9-2.3c-16.3-42.1-44.6-78-81.7-103.9c-38-26.5-94.6-40.5-141.1-40.5H167.9v145H10.7l0,81.5
		c-0.1,1.5-6.3,151.2,82.2,244.1c46.9,49.3,112.3,74.3,194.3,74.3l0.3,0c1.1,0.1,109.7,3.6,189.6-73.1
		c57.5-55.2,86.7-137.9,86.7-245.7c0-8.3-0.5-17-1.5-25.8l-0.4-3.6l25.5-25.5L549.4,159.1z M502.3,262.9
		c0,118.1-58.5,175.5-107.6,202.9c-51.1,28.5-101.5,30.9-106.8,31.1c-1.7,0.2-7.4,0.8-16,0.8c-26.2,0-79-5.6-124.3-45.3
		c-50-43.8-75.3-115.8-75.3-213.8v-19.6h95.6v59.2c0,65.5,52.1,120.3,116.1,122c32.6,1,63.3-11.1,86.6-33.8
		c23.3-22.7,36.2-53.1,36.2-85.6c0-42.2-12.2-74.2-36.2-95.3c-33.6-29.4-81.8-29.8-99.2-28.8v61.8c13.5-0.2,40.4,2,57.7,18.5
		c11.3,10.8,16.6,25.7,15.5,44.2c-1.8,32.1-27.1,57.3-57.7,57.4c-0.1,0-0.1,0-0.2,0c-16,0-30.7-5.9-41.4-16.5
		c-10.6-10.6-16.4-25.2-16.4-41.3l0.5-42.4V74.1h63.9c59.1,0,112.6,10.9,150.8,41.7c37.5,30.3,58.2,77.8,58.2,122.9V262.9z"/>
</g>
</svg>
